<?xml version="1.0" standalone="no"?>
<!DOCTYPE svg PUBLIC "-//W3C//DTD SVG 20010904//EN"
 "http://www.w3.org/TR/2001/REC-SVG-20010904/DTD/svg10.dtd">
<svg version="1.0" xmlns="http://www.w3.org/2000/svg"
 width="512.000000pt" height="512.000000pt" viewBox="0 0 512.000000 512.000000"
 preserveAspectRatio="xMidYMid meet">
<metadata>
Created by potrace 1.11, written by Peter Selinger 2001-2013
</metadata>
<g transform="translate(0.000000,512.000000) scale(0.100000,-0.100000)"
fill="#000000" stroke="none">
<path d="M1889 5116 c-2 -2 -40 -6 -84 -10 -109 -8 -159 -15 -390 -53 -140
-23 -415 -106 -575 -175 -461 -197 -735 -466 -820 -805 -18 -71 -19 -114 -19
-493 0 -407 3 -461 35 -561 14 -44 14 -48 -11 -97 l-25 -51 0 -373 c1 -301 4
-387 17 -443 8 -39 19 -76 23 -84 4 -8 -3 -36 -17 -67 l-24 -54 3 -397 c4
-383 5 -401 27 -468 60 -182 183 -352 351 -486 219 -175 555 -324 910 -405
134 -31 135 -31 260 -50 58 -8 116 -17 129 -19 161 -27 751 -27 921 -1 14 2
45 7 70 10 91 13 116 17 170 27 66 13 171 36 223 50 33 9 48 6 105 -15 196
-74 331 -96 567 -92 205 4 311 22 475 81 473 172 826 589 898 1065 12 80 8
381 -7 440 -26 110 -93 332 -118 392 -121 298 -350 551 -626 694 l-74 38 0 85
c0 67 -5 98 -23 139 -22 50 -22 54 -7 110 9 31 19 80 23 107 9 63 9 758 0 842
-39 361 -371 699 -886 902 -110 43 -260 93 -320 107 -11 2 -30 6 -42 10 -13 3
-34 7 -48 10 -14 2 -31 7 -39 9 -17 7 -145 32 -191 39 -19 3 -73 10 -120 16
-47 6 -101 13 -120 16 -38 6 -616 15 -621 10z"/>
</g>
</svg>
