<?xml version="1.0" standalone="no"?>
<!DOCTYPE svg PUBLIC "-//W3C//DTD SVG 20010904//EN"
 "http://www.w3.org/TR/2001/REC-SVG-20010904/DTD/svg10.dtd">
<svg version="1.0" xmlns="http://www.w3.org/2000/svg"
 width="512.000000pt" height="512.000000pt" viewBox="0 0 512.000000 512.000000"
 preserveAspectRatio="xMidYMid meet">
<metadata>
Created by potrace 1.11, written by Peter Selinger 2001-2013
</metadata>
<g transform="translate(0.000000,512.000000) scale(0.100000,-0.100000)"
fill="#000000" stroke="none">
<path d="M1035 4660 c-50 -22 -94 -63 -126 -115 l-24 -40 -3 -1925 c-2 -1316
0 -1936 8 -1961 14 -49 62 -108 118 -144 l46 -30 1501 0 c1427 0 1502 1 1538
18 44 22 100 74 124 120 17 30 18 136 18 1977 l0 1945 -32 51 c-35 55 -70 84
-128 108 -33 14 -197 16 -1519 15 -1408 0 -1483 -1 -1521 -19z m3001 -146 c12
-3 27 -17 33 -30 8 -18 11 -186 11 -562 l0 -537 -1520 0 -1520 -1 0 538 c0
312 4 547 9 562 6 13 18 26 28 29 26 7 2934 8 2959 1z m32 -1293 c9 -1 12
-128 12 -599 l0 -597 -1517 0 -1518 0 -3 590 c-1 325 0 595 2 600 2 7 513 10
1507 9 827 -1 1510 -2 1517 -3z m12 -1968 l0 -612 -22 -21 c-22 -20 -22 -20
-1506 -18 -1456 3 -1484 3 -1498 22 -12 17 -14 118 -14 626 0 334 2 609 4 611
2 2 686 4 1520 4 l1516 0 0 -612z"/>
<path d="M3470 4303 c-65 -24 -152 -114 -174 -181 -34 -100 -4 -205 80 -282
118 -109 260 -105 375 9 91 91 111 198 59 305 -25 53 -96 121 -148 143 -54 23
-139 25 -192 6z m175 -174 c27 -25 30 -33 30 -88 0 -53 -4 -65 -28 -88 -24
-24 -35 -28 -87 -28 -51 0 -64 4 -85 26 -30 30 -44 113 -26 148 35 64 140 80
196 30z"/>
<path d="M1490 4095 c-12 -13 -24 -34 -24 -47 -3 -32 23 -75 48 -82 12 -3 352
-6 757 -6 724 0 737 0 762 20 14 11 27 30 29 43 5 28 -17 73 -41 87 -13 7
-273 10 -764 10 l-744 0 -23 -25z"/>
<path d="M3470 2823 c-63 -23 -151 -113 -173 -177 -35 -103 -12 -193 71 -276
122 -122 280 -118 395 10 106 118 102 257 -11 370 -86 85 -178 109 -282 73z
m180 -178 c21 -22 25 -34 25 -85 -1 -52 -4 -64 -28 -88 -24 -23 -35 -27 -87
-27 -52 0 -64 4 -87 28 -24 24 -28 35 -28 87 1 89 39 124 130 115 35 -3 56
-12 75 -30z"/>
<path d="M1503 2588 c-34 -16 -46 -63 -27 -103 8 -18 25 -36 37 -39 12 -3 353
-6 758 -6 730 0 737 0 763 21 20 16 26 29 26 59 0 30 -6 43 -26 59 -26 21 -33
21 -768 20 -501 0 -748 -4 -763 -11z"/>
<path d="M3470 1463 c-28 -10 -66 -37 -101 -72 -113 -114 -118 -253 -14 -369
61 -68 122 -97 204 -97 83 1 146 30 207 98 105 117 94 272 -27 381 -80 72
-173 92 -269 59z m179 -178 c22 -21 26 -34 26 -85 0 -52 -4 -63 -28 -87 -24
-24 -35 -28 -87 -28 -51 0 -63 4 -86 27 -53 53 -36 170 29 198 39 17 118 3
146 -25z"/>
<path d="M1490 1215 c-12 -13 -24 -34 -24 -47 -3 -32 23 -75 48 -82 12 -3 353
-6 758 -6 l737 0 27 23 c36 32 36 83 -1 115 l-26 22 -748 0 -748 0 -23 -25z"/>
</g>
</svg>
